<svg width="19" height="20" viewBox="0 0 19 20" fill="none" xmlns="http://www.w3.org/2000/svg">
<path d="M9.58845 0.38501C14.4769 0.38501 18.4765 4.09725 18.4765 8.68053C18.4541 9.78245 18.2233 10.865 17.8008 11.8509C17.3783 12.8367 16.7744 13.7016 16.0323 14.3837C16.0323 15.0059 16.4056 16.6339 18.4765 19.0499C16.37 18.9359 14.3524 18.013 12.7259 16.4576C11.7127 16.7998 10.6461 16.976 9.58845 16.976C4.70002 16.976 0.70039 13.2638 0.70039 8.68053C0.70039 4.09725 4.70002 0.38501 9.58845 0.38501ZM9.58845 14.9022C13.517 14.9022 16.6989 12.1128 16.6989 8.68053C16.6989 5.24826 13.517 2.45889 9.58845 2.45889C5.65993 2.45889 2.478 5.24826 2.478 8.68053C2.478 12.1128 5.65993 14.9022 9.58845 14.9022Z" fill="black"/>
</svg>
