<svg width="13" height="13" viewBox="0 0 13 13" fill="none" xmlns="http://www.w3.org/2000/svg">
<path d="M12.4296 2.11782C12.5341 2.01697 12.6175 1.89632 12.6749 1.76291C12.7322 1.62949 12.7625 1.48599 12.7638 1.34076C12.7651 1.19554 12.7375 1.0515 12.6826 0.917055C12.6277 0.782612 12.5465 0.660455 12.4439 0.557712C12.3412 0.454969 12.2191 0.373697 12.0847 0.318639C11.9504 0.263581 11.8063 0.235839 11.6611 0.237032C11.5159 0.238226 11.3724 0.268329 11.2389 0.325588C11.1054 0.382847 10.9847 0.466113 10.8837 0.570529L6.5 4.95282L2.1177 0.570529C2.01757 0.463069 1.89682 0.376878 1.76266 0.317098C1.62849 0.257318 1.48366 0.225173 1.3368 0.222582C1.18994 0.219991 1.04407 0.247007 0.907875 0.302016C0.771684 0.357026 0.647968 0.438904 0.544107 0.542764C0.440247 0.646625 0.358369 0.77034 0.303359 0.906531C0.248349 1.04272 0.221334 1.1886 0.223925 1.33546C0.226516 1.48232 0.258661 1.62715 0.318441 1.76131C0.378221 1.89548 0.464411 2.01623 0.571871 2.11636L4.95125 6.50011L0.568955 10.8824C0.375755 11.0897 0.270575 11.364 0.275574 11.6473C0.280574 11.9307 0.395362 12.201 0.595756 12.4014C0.79615 12.6018 1.0665 12.7166 1.34986 12.7216C1.63321 12.7266 1.90745 12.6214 2.11479 12.4282L6.5 8.04595L10.8823 12.4297C11.0896 12.6229 11.3639 12.7281 11.6472 12.7231C11.9306 12.7181 12.2009 12.6033 12.4013 12.4029C12.6017 12.2025 12.7165 11.9321 12.7215 11.6488C12.7265 11.3654 12.6213 11.0912 12.4281 10.8839L8.04875 6.50011L12.4296 2.11782Z" fill="white"/>
</svg>
