<svg width="39" height="25" viewBox="0 0 39 25" fill="none" xmlns="http://www.w3.org/2000/svg">
<path d="M13.4555 15.5335C14.2337 15.7013 15.145 16.0158 16.036 16.0705C17.9043 16.1735 19.7658 16.1898 21.6273 16.2061C25.1574 16.2185 28.7208 16.2109 32.5634 16.2171C30.5126 14.4555 27.673 13.9381 26.5443 11.079C27.0828 11.0732 27.4549 10.9406 27.6213 11.0675C30.2442 13.0298 33.1983 14.34 36.2384 15.4172C38.7264 16.327 38.8681 17.4661 36.8498 18.9947C34.7319 20.5831 32.7541 22.4048 30.6962 24.0932C30.3709 24.379 29.8925 24.4848 29.4076 24.7305C29.2115 22.8986 29.2115 22.8986 33.4389 18.7295C32.8472 18.7219 32.3751 18.6878 31.923 18.6871C27.3227 18.7729 22.7423 18.892 18.1352 18.8912C16.6394 18.8821 15.1299 18.6999 13.6933 18.3379C11.1392 17.6944 10.1454 15.8878 10.9387 13.3715C11.3419 12.0868 12.0644 10.8824 12.8269 9.74478C13.6822 8.46074 14.7571 7.31692 15.6856 6.07962C16.3289 5.19485 16.8789 4.23001 17.5154 3.25864C16.4968 2.46443 15.4931 2.52275 14.5157 2.47454C10.3802 2.28137 6.34561 2.70776 2.29859 3.6403C1.82012 3.74609 1.34844 3.93848 0.843161 3.92434C0.563915 3.91057 0.177845 3.64353 0.0178112 3.37687C-0.0622057 3.24353 0.143013 2.75766 0.322237 2.60477C0.866713 2.23268 1.51761 1.8874 2.1289 1.7019C6.50756 0.343641 11.0007 -0.22187 15.5618 0.078558C16.486 0.113354 17.4237 0.321339 18.2819 0.622438C19.8385 1.18441 20.4655 2.30434 19.9098 3.86194C19.4534 5.1333 18.7109 6.3043 17.9284 7.40863C16.7879 9.04521 15.4609 10.5216 14.3204 12.1582C13.7303 13.0564 13.1471 14.0411 13.4555 15.5335Z" fill="#808080"/>
</svg>
